<?xml version="1.0" ?><!DOCTYPE svg  PUBLIC '-//W3C//DTD SVG 1.1//EN'  'http://www.w3.org/Graphics/SVG/1.1/DTD/svg11.dtd'><svg enable-background="new 0 0 91 91" height="50px" id="Layer_1" version="1.1" viewBox="0 0 91 91" width="50px" xml:space="preserve" xmlns="http://www.w3.org/2000/svg" xmlns:xlink="http://www.w3.org/1999/xlink"><g><g><g><path d="M79.565,58.896c-1.521,0.144-2.96,0.281-4.133,1.125c-1.741,1.252-2.902,2.807-4.023,4.313     c-2.016,2.701-4.099,5.494-9.298,5.756c-0.227,0.012-0.451,0.018-0.675,0.018c-3.389,0-6.246-1.289-9.015-2.538     c-1.528-0.688-3.109-1.4-4.748-1.876c-3.758-1.091-5.852,0.07-8.747,1.682c-0.74,0.413-1.514,0.841-2.356,1.258     c-4.688,2.298-9.478,0.683-12.501-4.227c-0.508-0.829-0.976-1.775-1.471-2.779c-1.373-2.779-2.927-5.93-5.633-6.646     c-1.304-0.351-2.718-0.143-4.214,0.08c-2.49,0.363-5.307,0.78-7.614-1.756c-0.66-0.725-1.176-1.577-1.628-2.471     c2.752,16.621,20.475,29.488,41.872,29.488c18.779,0,34.732-9.918,40.212-23.585c-0.878,0.75-1.826,1.288-2.867,1.623     C81.682,58.697,80.604,58.797,79.565,58.896z" fill="#FAE58F"/><path d="M45.381,32.197c-6.395,0-11.797,2.622-11.797,5.725c0,0.976,0.538,1.905,1.471,2.72     c1.351-4.665,19.298-4.665,20.646,0c0.933-0.815,1.472-1.744,1.472-2.72C57.173,34.819,51.773,32.197,45.381,32.197z" fill="#B07072"/><path d="M45.381,12.324c-21.038,0-38.527,12.436-41.726,28.648c-0.497,3.28,0.092,8.302,2.73,11.195     c1.705,1.873,3.753,1.572,6.12,1.223c1.601-0.235,3.25-0.479,4.896-0.041c3.447,0.911,5.183,4.427,6.713,7.529     c0.477,0.969,0.927,1.88,1.396,2.643c2.563,4.163,6.418,5.512,10.314,3.593c0.817-0.399,1.565-0.815,2.282-1.215     c3.005-1.674,5.609-3.115,10.04-1.828c1.752,0.51,3.389,1.245,4.97,1.96c2.895,1.306,5.652,2.54,8.91,2.374     c4.409-0.222,6.006-2.366,8.028-5.081c1.198-1.608,2.438-3.269,4.392-4.673c1.545-1.112,3.279-1.277,4.961-1.436     c0.994-0.094,1.935-0.182,2.803-0.46c1.671-0.539,3.095-1.773,4.347-3.772c0.08-0.129,0.193-0.217,0.317-0.283     c0.488-2.068,0.756-4.197,0.756-6.377C87.629,27.576,68.675,12.324,45.381,12.324z M53.655,43.804     c-1.696,0.854-4.213,1.355-6.847,1.491c-0.023,0-0.047,0.002-0.073,0.004c-0.448,0.021-0.901,0.035-1.354,0.035     s-0.908-0.014-1.359-0.035c-0.023-0.002-0.047-0.004-0.072-0.004c-2.632-0.136-5.146-0.635-6.843-1.489     c-3.185-1.343-5.212-3.456-5.212-5.884c0-4.157,5.923-7.414,13.486-7.414c7.558,0,13.48,3.256,13.48,7.414     C58.861,40.348,56.835,42.461,53.655,43.804z" fill="#F17897"/></g><g><path d="M45.565,83.45c-25.022,0-45.379-16.654-45.379-37.126c0-20.471,20.356-37.123,45.379-37.123     c25.019,0,45.373,16.652,45.373,37.123C90.938,66.796,70.584,83.45,45.565,83.45z M45.565,13.762     c-22.507,0-40.819,14.608-40.819,32.563c0,17.955,18.312,32.565,40.819,32.565c22.505,0,40.813-14.61,40.813-32.565     C86.378,28.37,68.07,13.762,45.565,13.762z" fill="#434B56"/><path d="M45.565,46.771c-8.508,0-14.922-3.804-14.922-8.848c0-5.045,6.414-8.849,14.922-8.849     c8.504,0,14.917,3.804,14.917,8.849C60.482,42.968,54.069,46.771,45.565,46.771z M45.565,33.635     c-6.326,0-10.362,2.54-10.362,4.289c0,1.748,4.036,4.285,10.362,4.285c6.321,0,10.356-2.537,10.356-4.285     C55.922,36.174,51.887,33.635,45.565,33.635z" fill="#434B56"/><path d="M36.278,43.881c-0.815,0-1.556-0.368-2.035-1.006c-0.349-0.467-0.526-1.027-0.526-1.666     c0-4.108,6.383-5.567,11.849-5.567c0.002,0,0.006,0,0.01,0h0.01c5.46,0.004,11.825,1.463,11.825,5.567     c0,1.522-1.102,2.671-2.561,2.671c-0.986,0-1.79-0.5-3.004-1.253c-1.553-0.966-3.9-2.423-6.28-2.423     c-2.382,0-4.731,1.459-6.287,2.423C38.065,43.381,37.264,43.879,36.278,43.881L36.278,43.881z" fill="#434B56"/><path d="M61.605,71.545c-3.681,0-6.682-1.354-9.59-2.665c-1.553-0.699-3.016-1.359-4.555-1.808     c-3.188-0.925-4.867,0.01-7.652,1.561c-0.758,0.42-1.54,0.855-2.422,1.287c-5.326,2.619-10.962,0.749-14.354-4.76     c-0.546-0.889-1.027-1.862-1.536-2.896c-1.298-2.627-2.637-5.344-4.713-5.893c-1.027-0.271-2.295-0.087-3.639,0.111     c-2.557,0.377-6.059,0.896-8.885-2.21c-4.073-4.468-4.248-12.003-3.085-15.688c0.379-1.202,1.662-1.868,2.863-1.487     c1.2,0.379,1.866,1.66,1.487,2.861c-0.875,2.77-0.498,8.386,2.107,11.242c1.089,1.196,2.197,1.16,4.847,0.768     c1.661-0.245,3.543-0.524,5.477-0.006c4.075,1.077,6.045,5.071,7.63,8.282c0.461,0.935,0.897,1.819,1.332,2.523     c1.023,1.664,3.896,5.297,8.46,3.059c0.79-0.39,1.516-0.796,2.211-1.181c3.015-1.679,6.127-3.415,11.144-1.954     c1.849,0.536,3.529,1.296,5.155,2.028c2.733,1.233,5.307,2.382,8.25,2.249c3.732-0.187,5.011-1.903,6.949-4.503     c1.203-1.617,2.57-3.449,4.706-4.983c1.859-1.337,3.88-1.529,5.662-1.697c0.915-0.086,1.778-0.168,2.499-0.399     c1.336-0.43,2.502-1.465,3.569-3.168c0.667-1.068,2.073-1.391,3.142-0.722s1.391,2.077,0.724,3.143     c-1.66,2.652-3.636,4.315-6.038,5.089c-1.194,0.384-2.401,0.497-3.466,0.599c-1.381,0.13-2.573,0.244-3.43,0.861     c-1.563,1.122-2.607,2.522-3.711,4.004c-2.11,2.83-4.502,6.039-10.378,6.334C62.109,71.539,61.855,71.545,61.605,71.545z" fill="#434B56"/><path d="M13.93,35.469c-0.61,0-1.222-0.244-1.669-0.727c-0.858-0.923-0.807-2.366,0.116-3.223l7.559-7.033     c0.925-0.858,2.367-0.806,3.223,0.116c0.858,0.923,0.808,2.367-0.116,3.223l-7.559,7.032     C15.044,35.267,14.486,35.469,13.93,35.469z" fill="#434B56"/><path d="M26.559,56.171c-0.737,0-1.459-0.356-1.899-1.016l-5.046-7.564c-0.699-1.049-0.417-2.465,0.632-3.164     c1.047-0.697,2.465-0.417,3.162,0.632l5.045,7.565c0.699,1.047,0.416,2.463-0.63,3.161     C27.434,56.045,26.994,56.171,26.559,56.171z" fill="#434B56"/><path d="M23.098,39.438c-0.945,0-1.827-0.592-2.155-1.532c-0.415-1.19,0.214-2.49,1.404-2.905l5.273-1.834     c1.187-0.415,2.489,0.216,2.903,1.406c0.415,1.188-0.214,2.489-1.404,2.903l-5.273,1.834     C23.599,39.397,23.345,39.438,23.098,39.438z" fill="#434B56"/><path d="M52.899,59.384c-0.658,0-1.311-0.283-1.76-0.829l-4.354-5.276c-0.802-0.971-0.664-2.408,0.308-3.21     c0.971-0.801,2.408-0.665,3.21,0.307l4.354,5.277c0.802,0.97,0.664,2.407-0.308,3.209C53.924,59.214,53.41,59.384,52.899,59.384z     " fill="#434B56"/><path d="M68.031,49.753c-0.798,0-1.571-0.418-1.99-1.161c-0.618-1.098-0.229-2.488,0.868-3.107l7.794-4.391     c1.098-0.619,2.49-0.229,3.106,0.868c0.619,1.096,0.23,2.489-0.868,3.105l-7.793,4.391C68.795,49.659,68.41,49.753,68.031,49.753     z" fill="#434B56"/><path d="M71.924,35.469c-1.035,0-1.972-0.707-2.22-1.758l-2.52-10.702c-0.289-1.226,0.472-2.453,1.696-2.742     c1.23-0.285,2.456,0.472,2.744,1.697l2.52,10.702c0.289,1.225-0.472,2.453-1.696,2.742     C72.271,35.449,72.097,35.469,71.924,35.469z" fill="#434B56"/><path d="M55.26,25.683c-0.719,0-1.429-0.338-1.871-0.973c-0.722-1.031-0.472-2.455,0.562-3.176l5.896-4.128     c1.033-0.723,2.453-0.471,3.177,0.562c0.722,1.031,0.471,2.453-0.56,3.176l-5.898,4.126     C56.166,25.549,55.711,25.683,55.26,25.683z" fill="#434B56"/><path d="M40.976,26.6c-0.479,0-0.964-0.151-1.377-0.463l-6.65-5.046c-1.004-0.76-1.198-2.191-0.438-3.193     c0.762-1.006,2.191-1.202,3.195-0.44l6.65,5.045c1.004,0.762,1.201,2.192,0.438,3.196C42.346,26.29,41.666,26.6,40.976,26.6z" fill="#434B56"/><path d="M33.183,59.384c-0.609,0-1.218-0.243-1.666-0.722c-0.86-0.922-0.812-2.365,0.108-3.226l3.441-3.213     c0.918-0.858,2.363-0.812,3.223,0.107c0.86,0.922,0.811,2.365-0.108,3.226L34.74,58.77C34.3,59.18,33.741,59.384,33.183,59.384z" fill="#434B56"/></g></g></g></svg>